<?xml version="1.0" standalone="no"?>
<!DOCTYPE svg PUBLIC "-//W3C//DTD SVG 20010904//EN"
 "http://www.w3.org/TR/2001/REC-SVG-20010904/DTD/svg10.dtd">
<svg version="1.0" xmlns="http://www.w3.org/2000/svg"
 width="490.000000pt" height="490.000000pt" viewBox="0 0 490.000000 490.000000"
 preserveAspectRatio="xMidYMid meet">
<metadata>
Created by potrace 1.11, written by Peter Selinger 2001-2013
</metadata>
<g transform="translate(0.000000,490.000000) scale(0.100000,-0.100000)"
fill="#000000" stroke="none">
<path d="M4211 3631 c-13 -8 -68 -279 -176 -866 -44 -243 -94 -509 -138 -740
-25 -126 -42 -233 -38 -236 3 -4 54 -10 113 -13 l106 -6 25 107 c14 60 30 134
37 165 18 88 17 88 199 88 138 0 160 -2 174 -17 15 -17 64 -206 74 -285 3 -21
11 -43 19 -49 15 -12 129 -19 183 -11 28 4 31 8 31 40 0 19 -22 150 -50 291
-27 141 -74 384 -104 541 -30 157 -85 440 -121 630 -37 190 -70 348 -74 352
-11 12 -244 19 -260 9z m178 -752 c52 -303 46 -265 66 -392 11 -64 14 -111 9
-117 -15 -15 -220 -16 -243 -1 -12 8 -11 26 3 122 9 63 18 125 21 139 6 35 41
255 60 375 8 55 18 114 21 130 6 27 7 28 14 9 5 -11 27 -130 49 -265z"/>
<path d="M24 3563 c3 -38 6 -78 6 -90 0 -22 3 -23 98 -23 53 0 104 -5 112 -10
13 -8 15 -101 18 -719 3 -800 9 -740 -76 -742 -26 -1 -68 -2 -94 -3 -26 -1
-50 -4 -53 -8 -4 -3 -9 -47 -11 -97 l-5 -91 352 5 c193 2 354 6 356 9 3 2 5
42 5 87 0 97 4 94 -122 98 -47 2 -88 5 -93 8 -4 2 -7 333 -7 734 l1 729 89 1
c50 1 95 3 100 4 6 1 15 3 20 4 6 0 10 37 10 86 l0 85 -356 0 -357 0 7 -67z"/>
<path d="M913 3622 c-30 -3 -31 -5 -35 -55 -2 -29 -5 -423 -7 -876 l-2 -824
42 -43 43 -44 381 0 381 0 42 43 42 43 0 840 0 840 -36 43 -37 42 -391 -3
c-215 -1 -405 -4 -423 -6z m635 -909 l-3 -728 -210 0 -210 0 -3 719 c-2 561 0
721 9 727 7 4 104 8 216 9 l203 1 -2 -728z"/>
<path d="M2019 3622 c-16 -2 -29 -11 -32 -22 -3 -10 -6 -349 -6 -752 -1 -403
-3 -778 -4 -833 l-2 -100 -33 -3 -33 -3 4 -60 c2 -33 7 -62 10 -66 4 -3 90 -8
192 -10 l185 -3 0 69 0 70 -32 3 -33 3 0 760 0 760 185 0 185 0 2 -302 c1
-166 -1 -304 -5 -307 -4 -3 -61 -6 -126 -7 -83 -2 -122 -6 -131 -16 -9 -9 -13
-34 -12 -76 2 -64 15 -97 90 -232 153 -276 287 -535 287 -553 0 -13 -12 -28
-30 -39 -16 -9 -30 -23 -30 -29 0 -7 16 -42 35 -78 l34 -65 -17 -83 c-10 -46
-17 -89 -16 -95 1 -7 2 -17 3 -22 0 -5 70 -47 154 -94 196 -109 237 -130 237
-118 0 13 -35 37 -168 112 -62 35 -129 77 -149 93 -35 29 -35 31 -30 85 9 81
35 174 55 192 28 27 156 89 184 89 30 0 165 -53 184 -72 14 -14 19 -65 30
-273 11 -216 23 -187 23 56 l0 226 -92 46 c-69 34 -97 54 -111 79 -10 18 -30
48 -43 65 -24 32 -24 33 -54 17 -24 -12 -33 -13 -45 -3 -38 31 -341 619 -330
638 5 7 48 11 116 11 l108 0 51 57 51 57 0 376 0 376 -44 43 -43 42 -364 -3
c-200 -1 -376 -4 -390 -6z"/>
<path d="M3050 3540 l0 -90 144 0 c118 0 147 -3 160 -16 14 -14 16 -103 16
-830 0 -448 3 -814 8 -815 4 0 60 -2 125 -5 l117 -4 0 809 c0 502 4 819 10
835 l10 26 145 0 145 0 0 90 0 90 -440 0 -440 0 0 -90z"/>
</g>
</svg>
